PathFileType	4	(X/Y/Z)	Walk2.trc
DataRate	CameraRate	NumFrames	NumMarkers	Units	OrigDataRate	OrigDataStartFrame	OrigNumFrames
200.000000	200.000000	5	68	mm	200.000000	611	862
Frame#	Times		LFHD		LowerBodyModelVer		RCAR		RWRU		LElbow		LTH2		RACR1		RUA1		RASI		RFA1		LACR1		LTH4		LTB1		LLFC		RTH2		LMT5		LUA1		LTB4		LTB3		LTB2		LToe		LMT1		RTH4		LASI		PELOrigin		LLMAL		RBHD		STRN		RLFC		CLAV		RTH3		LFA1		LWRU		RBack		LPSI		RMT1		RMT5		LCAR		RTH1		RTB2		RCAL		LTH1		C7		RLMAL		RFHD		LBHD		RToe		RPSI		LHJC		MidPelvis		OPelvis		RHJC		SACR		XPelvis		YPelvis		ZPelvis		LWRR		RTB1		RTB3		RTB4		RMMAL		RWRR		RElbow		LTH3		LMMAL		T10		LCAL		LElbowM
			X1	Y1	Z1	X2	Y2	Z2	X3	Y3	Z3	X4	Y4	Z4	X5	Y5	Z5	X6	Y6	Z6	X7	Y7	Z7	X8	Y8	Z8	X9	Y9	Z9	X10	Y10	Z10	X11	Y11	Z11	X12	Y12	Z12	X13	Y13	Z13	X14	Y14	Z14	X15	Y15	Z15	X16	Y16	Z16	X17	Y17	Z17	X18	Y18	Z18	X19	Y19	Z19	X20	Y20	Z20	X21	Y21	Z21	X22	Y22	Z22	X23	Y23	Z23	X24	Y24	Z24	X25	Y25	Z25	X26	Y26	Z26	X27	Y27	Z27	X28	Y28	Z28	X29	Y29	Z29	X30	Y30	Z30	X31	Y31	Z31	X32	Y32	Z32	X33	Y33	Z33	X34	Y34	Z34	X35	Y35	Z35	X36	Y36	Z36	X37	Y37	Z37	X38	Y38	Z38	X39	Y39	Z39	X40	Y40	Z40	X41	Y41	Z41	X42	Y42	Z42	X43	Y43	Z43	X44	Y44	Z44	X45	Y45	Z45	X46	Y46	Z46	X47	Y47	Z47	X48	Y48	Z48	X49	Y49	Z49	X50	Y50	Z50	X51	Y51	Z51	X52	Y52	Z52	X53	Y53	Z53	X54	Y54	Z54	X55	Y55	Z55	X56	Y56	Z56	X57	Y57	Z57	X58	Y58	Z58	X59	Y59	Z59	X60	Y60	Z60	X61	Y61	Z61	X62	Y62	Z62	X63	Y63	Z63	X64	Y64	Z64	X65	Y65	Z65	X66	Y66	Z66	X67	Y67	Z67	X68	Y68	Z68

611	3.055	-109.79	1571.1	-64.192	9	2014	4	-312.75	788.66	312.59	-346.77	848.46	326.38	-228.26	1051.9	-322.62	-184.5	631.34	-149.23	-257.53	1380.2	150.73	-313.45	1244.6	240.53	-173.94	966.52	175.91	-317.09	952.63	298.49	-218.07	1344.2	-201.77	-232.57	635.65	-184.49	-297.6	331.99	-40.37	-297.78	486.57	-146.07	-124.17	662.29	203.36	-261.93	24.696	-113.06	-211.77	1199.8	-279.88	-315.99	248.42	-46.905	-328.76	163.76	-49.098	-312.82	251.51	-108.2	-206.59	30.02	-19.264	-250.39	36.268	-21.415	-179.77	646.37	220.38	-162.75	953.31	-183.29	-168.34	959.91	-3.689	-378.5	70.27	-109.55	-282	1564.8	39.182	-108.98	1212.4	4.2885	-140.11	473.97	200.67	-166.77	1330.3	-18.691	-158.05	562.85	208.12	-133.38	952.29	-327.67	-112.36	837.16	-357.38	-391.92	1316.8	64.915	-400.19	975.55	-103.01	14.711	61.824	138.46	-13.965	50.825	218.37	-66.061	800.57	-343.71	-192.59	729.33	235.01	-105.33	291.44	194.77	-171.36	32.859	137.09	-204.77	711.15	-211.81	-323.96	1412.9	-26.759	-132.36	76.405	190.79	-124.64	1576.6	29.667	-260.78	1556.8	-94.902	51.676	69.76	156.61	-418.03	971.9	28.438	-254.5	845.69	-124.58	-288.73	966.82	-20.487	-168.34	959.91	-3.689	-262.11	854.68	119.67	-409.11	973.72	-37.284	-88.537	955.04	-1.0231	-163.38	1039.7	-6.4698	-170.83	962.85	76.218	-82.348	845.49	-289.09	-68.91	369.91	133.78	-88.887	187.48	119.5	-78.899	278.7	126.64	-99.644	89.24	111.82	-300.39	846.41	267.33	-371.48	1085.4	278.3	-256.77	555.69	-157.49	-372.87	75.267	-25.514	-385.01	1081.7	-24.18	-437.56	32.011	-71.738	-258.52	1011.4	-226.11
612	3.06	-105.57	1570.4	-63.626	9	2014	4	-308.89	788.1	313.16	-342.89	847.9	326.9	-221.62	1051.5	-322.41	-181.9	630.74	-149.46	-253.51	1379.6	151.14	-309.34	1244	240.95	-169.43	965.71	176.07	-313.13	952.04	298.95	-213.82	1343.6	-201.28	-230.12	635.25	-184.45	-296.49	331.85	-40.111	-295.8	486.45	-145.82	-119.89	661.17	202.89	-261.95	24.672	-113.07	-206.05	1199.4	-279.23	-315.16	248.35	-46.753	-328.31	163.73	-49.022	-311.87	251.46	-108.01	-206.51	29.971	-19.297	-250.36	36.266	-21.44	-175.38	645.35	220.35	-158.98	952.87	-183.37	-164.2	959.29	-3.6511	-378.35	70.458	-109.56	-277.86	1564.1	39.624	-104.86	1211.8	4.3433	-135.68	472.95	200.28	-162.69	1329.7	-18.343	-153.89	561.87	208.02	-125.71	952.9	-326.68	-103.24	838.01	-356.18	-387.85	1316.1	65.317	-396.38	974.76	-101.93	30.357	64.736	138.57	2.6384	53.156	218.72	-56.643	801.91	-342.12	-188	728.32	235.18	-95.611	291.57	194.85	-154.94	31.002	138.85	-202.1	710.6	-211.91	-319.92	1412.3	-26.367	-116.62	75.691	192.07	-120.49	1575.9	30.222	-256.54	1556.2	-94.444	67.218	73.7	156.36	-413.71	970.98	29.527	-250.53	845.03	-124.55	-284.63	966.08	-19.927	-164.2	959.29	-3.6511	-257.63	853.75	119.87	-405.05	972.87	-36.204	-84.387	954.51	-1.1605	-159.34	1039.1	-6.3594	-166.53	962.14	76.264	-73.871	846.62	-287.65	-61.822	370.7	133.27	-76.787	187.67	119.96	-69.305	279.19	126.61	-84.845	89.116	112.8	-296.5	845.81	267.85	-367.44	1084.8	278.74	-254.52	555.39	-157.32	-372.71	75.436	-25.535	-380.98	1081	-23.453	-437.51	32.287	-71.732	-252.28	1010.7	-226.2
613	3.065	-101.36	1569.7	-63.027	9	2014	4	-304.98	787.51	313.75	-338.96	847.32	327.44	-214.97	1051.2	-322.15	-179.28	630.16	-149.71	-249.48	1379	151.57	-305.24	1243.4	241.4	-164.9	964.85	176.26	-309.14	951.44	299.43	-209.6	1343	-200.76	-227.67	634.84	-184.4	-295.3	331.71	-39.878	-293.77	486.33	-145.56	-115.68	659.96	202.45	-261.98	24.648	-113.09	-200.33	1199	-278.5	-314.28	248.28	-46.617	-327.82	163.71	-48.96	-310.9	251.41	-107.84	-206.42	29.919	-19.333	-250.33	36.264	-21.468	-171.06	644.24	220.34	-155.19	952.44	-183.44	-160.04	958.64	-3.5896	-378.2	70.662	-109.56	-273.72	1563.5	40.105	-100.71	1211.2	4.354	-131.29	471.89	199.89	-158.61	1329	-17.987	-149.83	560.8	207.95	-118.1	953.53	-325.64	-94.189	838.9	-354.93	-383.78	1315.4	65.766	-392.55	973.96	-100.85	45.621	67.806	138.51	18.917	55.658	218.91	-47.313	803.27	-340.47	-183.45	727.23	235.38	-86.017	291.79	194.87	-138.79	29.418	140.54	-199.46	710.04	-212.02	-315.9	1411.6	-25.934	-101.15	75.229	193.25	-116.34	1575.2	30.81	-252.31	1555.6	-93.948	82.374	77.758	155.91	-409.35	970.05	30.638	-246.54	844.35	-124.51	-280.5	965.33	-19.347	-160.04	958.64	-3.5896	-253.15	852.8	120.08	-400.95	972.01	-35.104	-80.216	953.95	-1.2724	-155.27	1038.5	-6.2159	-162.2	961.4	76.334	-65.471	847.78	-286.16	-54.85	371.49	132.68	-64.923	188.01	120.33	-59.886	279.75	126.51	-70.346	89.215	113.67	-292.56	845.19	268.4	-363.35	1084.2	279.21	-252.22	555.09	-157.14	-372.54	75.63	-25.548	-376.94	1080.3	-22.682	-437.45	32.588	-71.728	-246.06	1010	-226.26
614	3.07	-97.147	1569	-62.394	9	2014	4	-301	786.91	314.36	-334.97	846.72	328	-208.33	1050.9	-321.84	-176.62	629.59	-149.99	-245.44	1378.4	152.02	-301.13	1242.7	241.88	-160.35	963.96	176.47	-305.09	950.82	299.95	-205.43	1342.4	-200.21	-225.19	634.43	-184.36	-294.05	331.55	-39.672	-291.68	486.21	-145.28	-111.52	658.66	202.03	-262	24.625	-113.1	-194.6	1198.5	-277.7	-313.36	248.22	-46.497	-327.3	163.69	-48.914	-309.91	251.37	-107.68	-206.33	29.865	-19.372	-250.3	36.263	-21.499	-166.8	643.06	220.35	-151.37	952	-183.48	-155.86	957.98	-3.5032	-378.04	70.884	-109.57	-269.58	1562.8	40.625	-96.535	1210.6	4.3273	-126.91	470.8	199.51	-154.52	1328.4	-17.622	-145.83	559.64	207.91	-110.53	954.19	-324.55	-85.215	839.81	-353.63	-379.71	1314.7	66.263	-388.68	973.16	-99.75	60.466	70.996	138.28	34.821	58.299	218.93	-38.074	804.65	-338.77	-178.95	726.06	235.59	-76.557	292.11	194.82	-122.96	28.095	142.14	-196.83	709.48	-212.16	-311.89	1410.9	-25.462	-85.978	75.004	194.34	-112.2	1574.5	31.433	-248.08	1555	-93.414	97.109	81.894	155.28	-404.95	969.12	31.766	-242.54	843.68	-124.46	-276.34	964.56	-18.748	-155.86	957.98	-3.5032	-248.65	851.82	120.31	-396.82	971.14	-33.992	-76.025	953.37	-1.3582	-151.18	1037.8	-6.0394	-157.86	960.64	76.428	-57.152	848.95	-284.62	-47.992	372.27	132.03	-53.316	188.48	120.6	-50.654	280.37	126.32	-56.182	89.518	114.45	-288.57	844.57	268.96	-359.24	1083.6	279.71	-249.88	554.79	-156.96	-372.36	75.846	-25.552	-372.88	1079.6	-21.87	-437.39	32.917	-71.726	-239.86	1009.3	-226.26
615	3.075	-92.944	1568.3	-61.727	9	2014	4	-296.96	786.29	314.99	-330.92	846.1	328.58	-201.7	1050.7	-321.46	-173.94	629.02	-150.27	-241.39	1377.7	152.51	-297.01	1242.1	242.4	-155.79	963.05	176.71	-301	950.19	300.48	-201.28	1341.9	-199.64	-222.69	634.02	-184.33	-292.72	331.39	-39.494	-289.56	486.09	-145	-107.41	657.29	201.65	-262.03	24.604	-113.11	-188.87	1198.1	-276.82	-312.4	248.15	-46.395	-326.74	163.69	-48.884	-308.9	251.33	-107.54	-206.25	29.809	-19.414	-250.27	36.263	-21.532	-162.59	641.8	220.39	-147.54	951.56	-183.49	-151.66	957.3	-3.3906	-377.88	71.123	-109.57	-265.45	1562.2	41.185	-92.336	1210	4.2713	-122.51	469.68	199.14	-150.44	1327.8	-17.244	-141.89	558.4	207.89	-103.02	954.86	-323.41	-76.32	840.75	-352.28	-375.63	1314	66.807	-384.79	972.36	-98.647	74.861	74.263	137.91	50.302	61.044	218.82	-28.93	806.06	-337.03	-174.48	724.82	235.81	-67.237	292.51	194.7	-107.51	27.017	143.65	-194.18	708.92	-212.3	-307.89	1410.2	-24.949	-71.169	74.998	195.32	-108.06	1573.7	32.092	-243.87	1554.5	-92.842	111.39	86.062	154.49	-400.5	968.18	32.904	-238.53	843.01	-124.39	-272.16	963.79	-18.131	-151.66	957.3	-3.3906	-244.13	850.81	120.54	-392.65	970.27	-32.871	-71.817	952.77	-1.418	-147.07	1037.1	-5.8303	-153.49	959.85	76.548	-48.916	850.14	-283.04	-41.244	373.03	131.3	-41.989	189.06	120.78	-41.617	281.05	126.04	-42.39	89.999	115.12	-284.53	843.93	269.55	-355.1	1083	280.26	-247.49	554.49	-156.77	-372.17	76.085	-25.548	-368.8	1078.9	-21.019	-437.32	33.276	-71.724	-233.69	1008.7	-226.23
